<?xml version="1.0" encoding="UTF-8"?>
<!DOCTYPE svg PUBLIC "-//W3C//DTD SVG 1.1//EN" "http://www.w3.org/Graphics/SVG/1.1/DTD/svg11.dtd">
<!-- Creator: CorelDRAW 2020 (64-Bit) -->
<svg xmlns="http://www.w3.org/2000/svg" xml:space="preserve" width="51mm" height="30mm" version="1.1" style="shape-rendering:geometricPrecision; text-rendering:geometricPrecision; image-rendering:optimizeQuality; fill-rule:evenodd; clip-rule:evenodd"
viewBox="0 0 5100 3000"
 xmlns:xlink="http://www.w3.org/1999/xlink"
 xmlns:xodm="http://www.corel.com/coreldraw/odm/2003">
 <defs>
  <style type="text/css">
   <![CDATA[
    .str0 {stroke:#FEFEFE;stroke-width:25.4;stroke-miterlimit:22.9256}
    .fil0 {fill:#FEFEFE}
    .fil1 {fill:#533626}
   ]]>
  </style>
 </defs>
 <g id="Слой_x0020_1">
  <metadata id="CorelCorpID_0Corel-Layer"/>
  <path class="fil0" d="M2548.12 18.66c815.87,0 1477.26,661.39 1477.26,1477.26 0,815.87 -661.39,1477.26 -1477.26,1477.26 -815.88,0 -1477.26,-661.39 -1477.26,-1477.26 0,-815.87 661.38,-1477.26 1477.26,-1477.26zm0 412.96c587.8,0 1064.3,476.5 1064.3,1064.3 0,587.8 -476.5,1064.3 -1064.3,1064.3 -587.8,0 -1064.3,-476.5 -1064.3,-1064.3 0,-587.8 476.5,-1064.3 1064.3,-1064.3zm0 57.22c556.19,0 1007.08,450.88 1007.08,1007.08 0,556.2 -450.89,1007.08 -1007.08,1007.08 -556.2,0 -1007.08,-450.88 -1007.08,-1007.08 0,-556.2 450.88,-1007.08 1007.08,-1007.08z"/>
  <path class="fil1 str0" d="M2637.14 806.73c1076.29,0 1515.47,0 1833.39,0 393.11,0 579.66,416.02 574.82,689.19 -6.3,355.07 -202.65,689.19 -551.31,689.19 -338.88,0 -1155.41,0 -1856.9,0 -662.2,0 -1296.69,0 -1849,0 -468.39,0 -737.36,-259.39 -737.36,-689.19 0,-429.8 298.58,-689.19 725.61,-689.19 204.86,0 1201.23,0 1860.75,0z"/>
 </g>
</svg>
