<?xml version="1.0" encoding="UTF-8"?>
<!DOCTYPE svg PUBLIC "-//W3C//DTD SVG 1.1//EN" "http://www.w3.org/Graphics/SVG/1.1/DTD/svg11.dtd">
<!-- Creator: CorelDRAW 2020 (64-Bit) -->
<svg xmlns="http://www.w3.org/2000/svg" xml:space="preserve" width="150mm" height="30mm" version="1.1" style="shape-rendering:geometricPrecision; text-rendering:geometricPrecision; image-rendering:optimizeQuality; fill-rule:evenodd; clip-rule:evenodd"
viewBox="0 0 15000 3000"
 xmlns:xlink="http://www.w3.org/1999/xlink"
 xmlns:xodm="http://www.corel.com/coreldraw/odm/2003">
 <defs>
  <style type="text/css">
   <![CDATA[
    .str0 {stroke:#FEFEFE;stroke-width:20;stroke-miterlimit:22.9256}
    .fil0 {fill:#FEFEFE}
    .fil1 {fill:#533626}
   ]]>
  </style>
 </defs>
 <g id="Слой_x0020_1">
  <metadata id="CorelCorpID_0Corel-Layer"/>
  <path class="fil0" d="M7498.12 18.66c815.87,0 1477.26,661.39 1477.26,1477.26 0,815.87 -661.39,1477.26 -1477.26,1477.26 -815.88,0 -1477.26,-661.39 -1477.26,-1477.26 0,-815.87 661.38,-1477.26 1477.26,-1477.26zm0 378.71c606.71,0 1098.55,491.84 1098.55,1098.55 0,606.71 -491.84,1098.55 -1098.55,1098.55 -606.71,0 -1098.55,-491.84 -1098.55,-1098.55 0,-606.71 491.84,-1098.55 1098.55,-1098.55zm0 91.47c556.19,0 1007.08,450.88 1007.08,1007.08 0,556.2 -450.89,1007.08 -1007.08,1007.08 -556.2,0 -1007.08,-450.88 -1007.08,-1007.08 0,-556.2 450.88,-1007.08 1007.08,-1007.08z"/>
  <path class="fil1 str0" d="M7650.65 801.86c1076.29,0 6172.14,0 6490.05,0 393.11,0 579.66,418.97 574.82,694.06 -6.29,357.58 -202.65,694.06 -551.31,694.06 -338.89,0 -5812.07,0 -6513.56,0 -662.2,0 -6122.32,0 -6632.67,0 -510.35,0 -737.36,-149.31 -737.36,-694.06 0,-544.75 330.29,-694.06 725.61,-694.06 395.32,0 5984.9,0 6644.42,0z"/>
 </g>
</svg>
